# xmcd
#
# Track frame offsets: 
#        150
#        24920
#        40967
#        60572
#        80852
#        95247
#        112760
#        134187
#        158577
#        175610
#        193722
#        207535
#        240552
#
# Disc length: 3951 seconds
#
# Revision: 11
# Processed by: cddbd v1.5.2PL0 Copyright (c) Steve Scherf et al.
# Submitted via: ExactAudioCopy v0.99pb5
#
DISCID=b10f6d0d
DTITLE=Skunk Anansie - Post Orgasmic Chill
DYEAR=1999
DGENRE=Alternative
TTITLE0=Charlie Big Potato
TTITLE1=On My Hotel T.V.
TTITLE2=We Don't Need Who You Think You Are
TTITLE3=Tracy's Flaw
TTITLE4=The Skank Heads
TTITLE5=Lately
TTITLE6=Secretly
TTITLE7=Good Things Don't Always Come To You
TTITLE8=Cheap Honesty
TTITLE9=You'll Follow Me Down
TTITLE10=And This Is Nothing That I Thought I Had
TTITLE11=I'm Not Afraid
TTITLE12=Data Track
EXTD=YEAR: 1999 ID3G: 17
EXTT0=
EXTT1=
EXTT2=
EXTT3=
EXTT4=
EXTT5=
EXTT6=
EXTT7=
EXTT8=
EXTT9=
EXTT10=
EXTT11=
EXTT12=
PLAYORDER=
